<svg xmlns="http://www.w3.org/2000/svg" xmlns:xlink="http://www.w3.org/1999/xlink" zoomAndPan="magnify" preserveAspectRatio="xMidYMid meet" version="1.0" viewBox="124 112.5 134.46 150.01"><defs><clipPath id="id1"><path d="M 243 183 L 258.28125 183 L 258.28125 203 L 243 203 Z M 243 183 " clip-rule="nonzero"/></clipPath><clipPath id="id2"><path d="M 244 191 L 258.28125 191 L 258.28125 209 L 244 209 Z M 244 191 " clip-rule="nonzero"/></clipPath><clipPath id="id3"><path d="M 178 112.5 L 193 112.5 L 193 142 L 178 142 Z M 178 112.5 " clip-rule="nonzero"/></clipPath><clipPath id="id4"><path d="M 165 112.5 L 181 112.5 L 181 136 L 165 136 Z M 165 112.5 " clip-rule="nonzero"/></clipPath><clipPath id="id5"><path d="M 124 147 L 162 147 L 162 262.5 L 124 262.5 Z M 124 147 " clip-rule="nonzero"/></clipPath></defs><path fill="#ffffff" d="M 227.988281 168.480469 C 227.988281 168.480469 226.710938 164.921875 225.003906 163.214844 C 223.300781 161.507812 222.875 156.386719 226.496094 154.679688 C 230.121094 152.972656 230.121094 152.972656 230.121094 152.972656 C 230.121094 152.972656 226.566406 155.105469 227.847656 159.089844 C 229.125 163.070312 230.121094 164.78125 227.988281 168.480469 " fill-opacity="1" fill-rule="nonzero"/><path fill="#ffffff" d="M 230.832031 169.757812 C 230.832031 169.757812 232.820312 166.058594 230.832031 161.367188 C 228.839844 156.671875 230.121094 156.386719 230.121094 156.386719 C 230.121094 156.386719 229.695312 156.847656 230.121094 157.773438 C 230.546875 158.699219 234.523438 162.042969 234.238281 165.597656 C 233.957031 169.15625 230.832031 169.757812 230.832031 169.757812 " fill-opacity="1" fill-rule="nonzero"/><path fill="#ffffff" d="M 233.054688 171.75 C 233.054688 171.75 237.839844 168.480469 235.753906 162.738281 C 235.753906 162.738281 238.21875 166.820312 236.417969 170.042969 C 236.417969 170.042969 237.554688 169.664062 237.839844 168.480469 C 237.839844 168.480469 238.21875 172.792969 233.054688 171.75 " fill-opacity="1" fill-rule="nonzero"/><path fill="#ffffff" d="M 231.984375 179.621094 C 231.984375 179.621094 229.171875 181.519531 225.476562 179.621094 C 221.785156 177.726562 223.679688 172.984375 220.648438 171.085938 C 220.648438 171.085938 224.058594 171.5625 225.382812 174.785156 C 226.710938 178.011719 226.933594 180 231.984375 179.621094 " fill-opacity="1" fill-rule="nonzero"/><path fill="#ffffff" d="M 220.648438 169.1875 C 220.648438 169.1875 218.042969 167.199219 219.890625 163.785156 C 221.738281 160.371094 220.742188 156.386719 216.765625 154.535156 C 216.765625 154.535156 218.042969 160.273438 215.769531 162.738281 C 213.496094 165.207031 217.710938 169.1875 219.179688 169.1875 C 219.179688 169.1875 215.058594 170.46875 213.214844 173.316406 C 211.367188 176.160156 211.367188 177.867188 212.359375 179.71875 C 213.355469 181.566406 215.628906 183.132812 215.34375 184.695312 C 215.34375 184.695312 217.21875 180.867188 214.777344 177.867188 C 212.332031 174.867188 217.144531 170.46875 220.648438 169.1875 " fill-opacity="1" fill-rule="nonzero"/><path fill="#ffffff" d="M 201.277344 131.632812 C 201.277344 131.632812 215.488281 134.90625 224.4375 145.859375 C 228.273438 150.128906 230.433594 153.539062 234.253906 156.386719 C 234.253906 156.386719 228.339844 150.128906 226.316406 146.570312 C 224.292969 143.015625 215.914062 134.90625 201.277344 131.632812 " fill-opacity="1" fill-rule="nonzero"/><path fill="#ffffff" d="M 212.324219 135.421875 C 212.324219 135.421875 208.332031 136.789062 204.640625 135.421875 C 204.640625 135.421875 205.628906 138.320312 210.109375 139.363281 C 214.589844 140.40625 215.703125 140.878906 216.429688 141.589844 C 216.429688 141.589844 214.386719 139.125 210.535156 137.941406 C 210.535156 137.941406 213.320312 137.339844 213.523438 136.644531 C 213.523438 136.644531 212.957031 135.648438 212.324219 135.421875 " fill-opacity="1" fill-rule="nonzero"/><path fill="#ffffff" d="M 220.558594 141.589844 C 220.558594 141.589844 216.9375 142.832031 213.589844 141.589844 C 213.589844 141.589844 214.488281 144.21875 218.550781 145.167969 C 222.613281 146.113281 223.625 146.542969 224.285156 147.1875 C 224.285156 147.1875 222.433594 144.949219 218.9375 143.875 C 218.9375 143.875 221.460938 143.332031 221.644531 142.699219 C 221.644531 142.699219 221.132812 141.796875 220.558594 141.589844 " fill-opacity="1" fill-rule="nonzero"/><path fill="#ffffff" d="M 226.457031 147.628906 C 226.457031 147.628906 223.554688 148.167969 221.140625 146.847656 C 221.140625 146.847656 221.53125 148.953125 224.523438 150.132812 C 227.519531 151.308594 228.242188 151.75 228.671875 152.316406 C 228.671875 152.316406 227.511719 150.402344 224.964844 149.191406 C 224.964844 149.191406 226.953125 149.058594 227.164062 148.597656 C 227.164062 148.597656 226.875 147.851562 226.457031 147.628906 " fill-opacity="1" fill-rule="nonzero"/><path fill="#ffffff" d="M 236.085938 182.847656 C 236.085938 182.847656 230.261719 179.574219 225.574219 181.851562 C 225.574219 181.851562 233.527344 181.992188 238.929688 186.6875 C 238.929688 186.6875 239.292969 184.117188 236.085938 182.847656 " fill-opacity="1" fill-rule="nonzero"/><path fill="#ffffff" d="M 219.75 175.777344 C 219.75 175.777344 220.472656 182.417969 223.734375 184.695312 C 223.734375 184.695312 216.242188 187.257812 213.589844 195.222656 C 213.589844 195.222656 212.300781 187.539062 218.9375 184.695312 C 218.9375 184.695312 217.464844 178.890625 219.75 175.777344 " fill-opacity="1" fill-rule="nonzero"/><path fill="#ffffff" d="M 215.792969 172.484375 C 215.792969 172.484375 209.378906 165.253906 211.914062 163.308594 C 214.449219 161.367188 217.210938 156.8125 213.558594 152.261719 C 209.90625 147.707031 205.28125 145.574219 205.28125 145.574219 C 205.28125 145.574219 212.601562 153.824219 211.039062 156.953125 C 209.476562 160.085938 205.640625 162.929688 206.921875 166.34375 C 208.199219 169.757812 215.792969 172.484375 215.792969 172.484375 " fill-opacity="1" fill-rule="nonzero"/><path fill="#ffffff" d="M 197.632812 136.847656 C 197.632812 136.847656 204.296875 149.195312 203.902344 152.316406 C 203.503906 155.4375 196.304688 161.007812 196.683594 167.328125 C 197.0625 173.648438 201.800781 183.320312 206.535156 187.683594 C 206.535156 187.683594 195.167969 186.167969 186.078125 197.167969 C 186.078125 197.167969 190.054688 185.738281 193.652344 183.867188 C 193.652344 183.867188 186.835938 172.957031 188.351562 167.328125 C 189.867188 161.699219 196.304688 154.300781 197.820312 151.453125 C 199.335938 148.609375 200.09375 143.109375 197.632812 136.847656 " fill-opacity="1" fill-rule="nonzero"/><path fill="#ffffff" d="M 226.925781 168.691406 C 226.925781 168.691406 231.257812 170.542969 232.605469 173.171875 C 233.957031 175.804688 234.878906 178.292969 237.011719 178.222656 C 237.011719 178.222656 235.375 178.292969 233.8125 177.511719 C 233.8125 177.511719 232.617188 178.578125 232.257812 178.792969 L 232.511719 178.402344 C 232.511719 178.402344 233.398438 176.445312 232.257812 174.808594 C 231.113281 173.171875 230.125 170.398438 226.925781 168.691406 " fill-opacity="1" fill-rule="nonzero"/><path fill="#ffffff" d="M 230.476562 173.03125 C 230.476562 173.03125 227.777344 171.109375 222.875 171.394531 C 222.875 171.394531 229.199219 173.101562 231.96875 179.289062 C 231.96875 179.289062 230.199219 174.535156 227.421875 172.960938 C 227.421875 172.960938 228.769531 172.390625 230.476562 173.03125 " fill-opacity="1" fill-rule="nonzero"/><path fill="#ffffff" d="M 237.011719 179.003906 C 237.011719 179.003906 242.765625 174.667969 240.632812 167.007812 C 240.632812 167.007812 242.835938 173.542969 241.34375 175.777344 C 241.34375 175.777344 243.472656 173.316406 242.480469 169.617188 C 242.480469 169.617188 244.824219 174.953125 241.910156 178.011719 C 241.910156 178.011719 241.769531 176.445312 240.777344 177.226562 C 239.78125 178.011719 239.210938 179.078125 237.011719 179.003906 " fill-opacity="1" fill-rule="nonzero"/><path fill="#ffffff" d="M 241.910156 179.007812 C 241.910156 179.007812 252.140625 182.777344 256.332031 191.3125 C 256.332031 191.3125 250.082031 183.273438 245.039062 182.703125 C 239.992188 182.136719 240.492188 183.914062 241.910156 184.695312 C 243.332031 185.476562 245.25 188.535156 244.609375 191.3125 C 244.609375 191.3125 244.628906 187.097656 240.945312 186.261719 C 240.945312 186.261719 241.964844 186.121094 240.945312 185.160156 C 239.921875 184.199219 238.644531 182.917969 238.574219 182.0625 C 238.5 181.210938 241.414062 180.667969 242.621094 181.046875 C 242.621094 181.046875 243.121094 179.9375 241.910156 179.007812 " fill-opacity="1" fill-rule="nonzero"/><g clip-path="url(#id1)"><path fill="#ffffff" d="M 245.179688 183.867188 C 245.179688 183.867188 257.042969 191.453125 258.464844 202.40625 C 258.464844 202.40625 254.058594 195.460938 248.730469 193.136719 C 248.730469 193.136719 247.878906 187.6875 244.46875 185.160156 C 243.046875 184.128906 244.300781 183.257812 245.179688 183.867188 " fill-opacity="1" fill-rule="nonzero"/></g><g clip-path="url(#id2)"><path fill="#ffffff" d="M 258.464844 204.28125 C 258.464844 204.28125 252.851562 195.269531 244.515625 191.953125 C 244.515625 191.953125 250.578125 201.339844 250.386719 208.644531 C 250.386719 208.644531 253.417969 203.523438 251.144531 200.769531 C 248.871094 198.019531 248.871094 198.589844 248.871094 198.589844 C 248.871094 198.589844 252.898438 197.738281 258.464844 204.28125 " fill-opacity="1" fill-rule="nonzero"/></g><path fill="#ffffff" d="M 250.386719 212.628906 C 250.386719 212.628906 255.410156 208.929688 257.585938 205.324219 C 257.585938 205.324219 251.527344 214.429688 248.777344 216.230469 C 248.777344 216.230469 250.199219 213.859375 250.386719 212.628906 " fill-opacity="1" fill-rule="nonzero"/><path fill="#ffffff" d="M 248.304688 215.1875 C 248.304688 215.1875 252.578125 204.660156 237.84375 195.222656 C 230.78125 191.191406 228.605469 191.953125 228.605469 191.953125 C 228.605469 191.953125 239.6875 194.132812 245.179688 204.753906 C 247.167969 210.351562 246.125 212.53125 246.125 212.53125 C 246.125 212.53125 242.621094 210.824219 241.484375 208.644531 C 241.484375 208.644531 243.664062 212.910156 248.304688 215.1875 " fill-opacity="1" fill-rule="nonzero"/><path fill="#ffffff" d="M 247.453125 215.851562 C 247.453125 215.851562 236.761719 212.152344 232.257812 201.339844 C 232.257812 201.339844 234.382812 211.867188 244.515625 217.085938 C 244.515625 217.085938 245.9375 217.085938 247.453125 215.851562 " fill-opacity="1" fill-rule="nonzero"/><path fill="#ffffff" d="M 238.941406 215.757812 C 238.941406 215.757812 226.710938 209.59375 225.574219 199.066406 C 225.574219 199.066406 225.382812 206.460938 231.257812 212.058594 C 231.257812 212.058594 234.3125 214.945312 238.941406 215.757812 " fill-opacity="1" fill-rule="nonzero"/><path fill="#ffffff" d="M 242.527344 191.894531 C 242.527344 191.894531 236.984375 185.691406 228.671875 187.398438 C 225.761719 188.347656 224.34375 190.148438 224.34375 190.148438 C 224.34375 190.148438 226.613281 185.78125 230.6875 185.5 C 234.761719 185.21875 240.445312 188.707031 242.527344 191.894531 " fill-opacity="1" fill-rule="nonzero"/><path fill="#ffffff" d="M 235.804688 157.949219 C 235.804688 157.949219 238.074219 161.128906 238.878906 161.839844 C 239.6875 162.550781 241.25 165.917969 241.53125 167.625 C 241.53125 167.625 240.886719 163.40625 240.191406 161.839844 C 240.191406 161.839844 237.648438 160.511719 235.804688 157.949219 " fill-opacity="1" fill-rule="nonzero"/><path fill="#ffffff" d="M 232.257812 174.808594 C 232.257812 174.808594 231.210938 176.824219 231.96875 178.246094 C 231.96875 178.246094 230.3125 176.609375 231.96875 174.367188 C 231.96875 174.367188 232.574219 174.015625 232.257812 174.808594 " fill-opacity="1" fill-rule="nonzero"/><path fill="#ffffff" d="M 244.988281 217.9375 C 244.988281 217.9375 231.363281 218.222656 223.734375 207.410156 C 222.164062 204.753906 222.164062 204.753906 222.164062 204.753906 C 222.164062 204.753906 222.734375 209.875 227.421875 212.816406 C 227.421875 212.816406 223.679688 211.679688 222.164062 209.210938 C 222.164062 209.210938 225.691406 218.601562 238.941406 220.023438 C 238.941406 220.023438 243.535156 219.359375 244.988281 217.9375 " fill-opacity="1" fill-rule="nonzero"/><path fill="#ffffff" d="M 237.507812 221.066406 C 237.507812 221.066406 230.878906 221.066406 226.332031 215.757812 C 226.332031 215.757812 229.835938 229.699219 220.742188 235.671875 C 220.742188 235.671875 227.695312 235.710938 234.949219 225.714844 C 234.949219 225.714844 231.347656 230.648438 227.941406 231.214844 C 227.941406 231.214844 229.320312 223.324219 227.847656 219.078125 C 227.847656 219.078125 231.75 222.0625 230.5 226.949219 C 230.5 226.949219 233.433594 222.015625 237.507812 221.066406 " fill-opacity="1" fill-rule="nonzero"/><path fill="#ffffff" d="M 218.613281 201.339844 C 218.613281 201.339844 202.273438 204.800781 193.464844 217.085938 C 193.464844 217.085938 198.4375 212.910156 202.273438 212.390625 C 202.273438 212.390625 194.175781 222.539062 195.167969 234.203125 C 195.167969 234.203125 195.878906 218.316406 206.039062 212.390625 C 216.195312 206.460938 216.195312 206.460938 216.195312 206.460938 C 216.195312 206.460938 211.648438 207.410156 208.382812 209.210938 C 208.382812 209.210938 211.648438 203.617188 218.613281 201.339844 " fill-opacity="1" fill-rule="nonzero"/><path fill="#ffffff" d="M 198.152344 226.664062 C 198.152344 226.664062 201.941406 241.316406 211.695312 243.449219 C 211.695312 243.449219 210.796875 244.871094 207.8125 244.304688 C 207.8125 244.304688 208.851562 245.726562 210.535156 245.726562 C 210.535156 245.726562 208.855469 247.574219 204.925781 245.726562 C 200.996094 243.875 200.140625 240.460938 200.140625 240.460938 C 200.140625 240.460938 201.183594 241.742188 202.863281 241.882812 C 202.863281 241.882812 198.578125 237.046875 198.152344 226.664062 " fill-opacity="1" fill-rule="nonzero"/><path fill="#ffffff" d="M 211.695312 241.882812 C 211.695312 241.882812 208.144531 241.882812 205.28125 237.191406 C 205.28125 237.191406 213.640625 237.902344 217.617188 229.792969 C 217.617188 229.792969 215.625 237.53125 208.523438 238.613281 C 208.523438 238.613281 212.003906 238.328125 212.785156 237.972656 C 212.785156 237.972656 210.867188 239.609375 210.941406 240.179688 C 210.941406 240.179688 213.992188 238.753906 215.558594 235.839844 C 215.558594 235.839844 214.851562 238.757812 211.695312 241.882812 " fill-opacity="1" fill-rule="nonzero"/><g clip-path="url(#id3)"><path fill="#ffffff" d="M 180.679688 112.507812 C 180.679688 112.507812 176.699219 127.082031 179.96875 132.769531 C 183.234375 138.460938 179.679688 141.023438 179.679688 141.023438 C 179.679688 141.023438 184.515625 139.882812 184.371094 134.476562 C 184.230469 129.070312 182.097656 122.101562 186.078125 121.105469 C 186.078125 121.105469 189.769531 125.597656 192.46875 126.765625 C 192.46875 126.765625 187.925781 121.105469 187.355469 118.972656 C 186.789062 116.835938 182.382812 112.507812 180.679688 112.507812 " fill-opacity="1" fill-rule="nonzero"/></g><path fill="#ffffff" d="M 196.304688 130.066406 C 196.304688 130.066406 188.207031 126.511719 186.789062 124.519531 C 185.367188 122.527344 184.648438 128.503906 185.574219 131.0625 C 186.503906 133.625 186.917969 137.609375 185.574219 139.171875 C 185.574219 139.171875 191.050781 136.042969 188.777344 131.632812 C 186.503906 127.222656 194.175781 130.921875 196.304688 130.066406 " fill-opacity="1" fill-rule="nonzero"/><path fill="#ffffff" d="M 204.925781 191.3125 C 204.925781 191.3125 192.519531 195.839844 188.351562 201.339844 C 188.351562 201.339844 192.519531 200.808594 193.464844 203.539062 C 194.414062 206.273438 186.078125 217.773438 186.078125 217.773438 C 186.078125 217.773438 197.632812 200.394531 208.808594 199.066406 C 208.808594 199.066406 199.679688 200.0625 196.304688 201.339844 C 196.304688 201.339844 199.714844 194.179688 204.925781 191.3125 " fill-opacity="1" fill-rule="nonzero"/><path fill="#ffffff" d="M 192.46875 241.882812 C 192.46875 241.882812 187.941406 230.550781 193.464844 222.015625 C 193.464844 222.015625 184.089844 229.699219 192.46875 241.882812 " fill-opacity="1" fill-rule="nonzero"/><path fill="#ffffff" d="M 188.160156 205.324219 C 188.160156 205.324219 177.929688 222.394531 186.078125 232.828125 C 186.078125 232.828125 177.363281 222.207031 180.394531 215.757812 C 183.425781 209.308594 188.160156 205.324219 188.160156 205.324219 " fill-opacity="1" fill-rule="nonzero"/><path fill="#ffffff" d="M 207.863281 248.570312 C 207.863281 248.570312 206.15625 255.398438 200.472656 253.3125 C 200.472656 253.3125 203.171875 252.175781 202.863281 249.898438 C 202.863281 249.898438 199.335938 253.691406 194.414062 248.570312 C 194.414062 248.570312 202.414062 249.472656 201.277344 244.96875 C 201.277344 244.96875 202.652344 248.398438 201.277344 249.339844 C 201.277344 249.339844 203.921875 247.9375 203.902344 246.546875 C 203.902344 246.546875 205.121094 249.328125 204.925781 251.226562 C 204.925781 251.226562 206.488281 251.710938 207.863281 248.570312 " fill-opacity="1" fill-rule="nonzero"/><path fill="#ffffff" d="M 198.152344 244.96875 C 198.152344 244.96875 195.617188 241.894531 195.359375 236.605469 C 195.359375 236.605469 191.476562 240.335938 198.152344 244.96875 " fill-opacity="1" fill-rule="nonzero"/><g clip-path="url(#id4)"><path fill="#ffffff" d="M 180.679688 112.507812 C 180.679688 112.507812 162.492188 115.308594 170.164062 135.421875 C 170.164062 135.421875 154.253906 115.289062 180.679688 112.507812 " fill-opacity="1" fill-rule="nonzero"/></g><path fill="#ffffff" d="M 185.160156 144.011719 C 185.160156 144.011719 157.378906 145.714844 158.230469 178.792969 C 158.230469 178.792969 154.253906 172.886719 154.535156 168.480469 C 154.535156 168.480469 149.992188 198.457031 159.933594 213.699219 C 169.878906 228.9375 171.050781 241.679688 169.328125 246.546875 C 169.328125 246.546875 179.859375 230.550781 169.328125 212.390625 C 158.800781 194.226562 170.164062 178.246094 170.164062 178.246094 C 170.164062 178.246094 164.199219 177.539062 162.777344 181.046875 C 162.777344 181.046875 157.53125 157.523438 185.160156 144.011719 " fill-opacity="1" fill-rule="nonzero"/><path fill="#ffffff" d="M 188.160156 156.386719 C 188.160156 156.386719 176.417969 165.992188 182.382812 183.667969 C 188.351562 201.339844 176.417969 213.699219 176.417969 213.699219 C 176.417969 213.699219 180.679688 203.160156 176.417969 195.277344 C 172.152344 187.398438 169.21875 161.222656 188.160156 156.386719 " fill-opacity="1" fill-rule="nonzero"/><path fill="#ffffff" d="M 165.414062 135.421875 C 165.414062 135.421875 144.589844 141.6875 144.308594 181.046875 C 144.023438 215.28125 169.191406 220.6875 165.414062 259.097656 C 165.414062 259.097656 162.492188 230.742188 148.855469 220.023438 C 135.214844 209.308594 134.871094 182.035156 136.636719 175.328125 C 136.636719 175.328125 146.691406 139.46875 165.414062 135.421875 " fill-opacity="1" fill-rule="nonzero"/><path fill="#ffffff" d="M 192.46875 134.476562 C 192.46875 134.476562 196.734375 143.582031 192.46875 148.988281 C 188.207031 154.394531 179.398438 153.96875 174.570312 160.726562 C 174.570312 160.726562 179.675781 150.054688 185.574219 147.601562 C 191.476562 145.148438 193.886719 141.457031 192.46875 134.476562 " fill-opacity="1" fill-rule="nonzero"/><path fill="#ffffff" d="M 172.011719 141.023438 C 172.011719 141.023438 155.105469 151.597656 151.554688 167.007812 C 151.554688 167.007812 153.96875 140.3125 172.011719 141.023438 " fill-opacity="1" fill-rule="nonzero"/><g clip-path="url(#id5)"><path fill="#ffffff" d="M 143.738281 147.601562 C 143.738281 147.601562 116.746094 176.714844 137.773438 219.472656 C 144.023438 231.214844 159.367188 238.898438 161.78125 262.511719 C 161.78125 262.511719 158.738281 241.222656 140.046875 231.949219 C 133.507812 228.65625 122.996094 212.527344 124.132812 197.261719 C 125.269531 181.992188 130.953125 161.863281 143.738281 147.601562 " fill-opacity="1" fill-rule="nonzero"/></g><path fill="#ffffff" d="M 220.648438 188.6875 C 220.648438 188.6875 216.480469 192.804688 217.617188 197.925781 C 217.617188 197.925781 213.449219 192.683594 220.648438 188.6875 " fill-opacity="1" fill-rule="nonzero"/></svg>